<?xml version="1.0" encoding="utf-8"?>
<!-- Generator: Adobe Illustrator 16.0.0, SVG Export Plug-In . SVG Version: 6.00 Build 0)  -->
<!DOCTYPE svg PUBLIC "-//W3C//DTD SVG 1.1//EN" "http://www.w3.org/Graphics/SVG/1.1/DTD/svg11.dtd">
<svg version="1.1" id="Layer_1" xmlns="http://www.w3.org/2000/svg" xmlns:xlink="http://www.w3.org/1999/xlink" x="0px" y="0px"
	 width="80px" height="91px" viewBox="0 0 80 91" enable-background="new 0 0 80 91" xml:space="preserve">
<g>
	<path fill="none" stroke="#A00058" stroke-width="1.2036" stroke-miterlimit="10" d="M78.607,36.68
		c0-0.117-0.026-0.293-0.072-0.394c-0.118-0.432-0.383-0.824-0.777-1.1l-11.071-7.695v-8.25c0-1.092-0.886-1.979-1.979-1.979H51.971
		L41.135,9.729c-0.677-0.472-1.576-0.474-2.255-0.005l-10.906,7.538H15.295c-1.096,0-1.981,0.888-1.981,1.979v8.152L2.189,35.082
		c-0.548,0.378-0.843,0.983-0.853,1.601c0,0.012-0.003,0.023-0.003,0.035l0.06,42.932c0,0.524,0.209,1.027,0.581,1.399
		c0.372,0.369,0.874,0.578,1.398,0.578c0.001,0,0.003,0,0.003,0l73.313-0.102c1.094-0.001,1.979-0.89,1.978-1.982L78.607,36.68z
		 M65.742,31.399l8.404,5.809l-8.404,5.809V31.399z M40.002,13.765l5.032,3.497H34.942L40.002,13.765z M13.402,30.904v11.616
		l-8.405-5.809L13.402,30.904z M5.3,40.495l23.966,16.563L5.349,75.608L5.3,40.495z M9.169,77.657l30.86-23.938L70.78,77.572
		L9.169,77.657z M50.745,57.021l23.906-16.621L74.7,75.602L50.745,57.021z"/>
	
		<line fill="none" stroke="#A00058" stroke-width="1.2036" stroke-miterlimit="10" x1="23.167" y1="28.667" x2="58.167" y2="28.667"/>
	
		<line fill="none" stroke="#A00058" stroke-width="1.2036" stroke-miterlimit="10" x1="23.167" y1="32.833" x2="58.167" y2="32.833"/>
	<line fill="none" stroke="#A00058" stroke-width="1.2036" stroke-miterlimit="10" x1="23.167" y1="37" x2="58.167" y2="37"/>
	
		<line fill="none" stroke="#A00058" stroke-width="1.2036" stroke-miterlimit="10" x1="23.167" y1="41.167" x2="58.167" y2="41.167"/>
</g>
</svg>
