<?xml version="1.0" encoding="utf-8"?>
<!-- Generator: Adobe Illustrator 16.0.0, SVG Export Plug-In . SVG Version: 6.00 Build 0)  -->
<!DOCTYPE svg PUBLIC "-//W3C//DTD SVG 1.1//EN" "http://www.w3.org/Graphics/SVG/1.1/DTD/svg11.dtd">
<svg version="1.1" id="Layer_1" xmlns="http://www.w3.org/2000/svg" xmlns:xlink="http://www.w3.org/1999/xlink" x="0px" y="0px"
	 width="48.818px" height="48.643px" viewBox="0 0 48.818 48.643" enable-background="new 0 0 48.818 48.643" xml:space="preserve">
<rect fill-rule="evenodd" clip-rule="evenodd" fill="#293542" stroke="#000000" stroke-width="0.1761" stroke-miterlimit="10" width="48.818" height="48.643"/>
<g>
	<path fill-rule="evenodd" clip-rule="evenodd" fill="none" stroke="#FFFFFF" stroke-width="0.5" stroke-miterlimit="10" d="
		M12.735,11.645c-0.482-0.659-0.84-1.27-1.031-1.993c-0.211-0.795-0.215-1.584-0.027-2.349c0.35-1.425,1.209-2.498,2.537-3.146
		c1.133-0.553,2.299-0.63,3.477-0.111c1.666,0.733,3.201,1.662,4.572,2.868C22.989,7.554,23.7,8.202,24.257,9
		c0.133,0.191,0.209,0.029,0.264-0.049c0.389-0.56,0.857-1.046,1.352-1.509c1.385-1.301,2.91-2.411,4.633-3.222
		c0.652-0.307,1.326-0.587,2.078-0.602c1.088-0.021,2.053,0.338,2.889,0.988c0.98,0.762,1.602,1.804,1.762,3.025
		c0.188,1.414-0.121,2.744-1.117,3.843c-0.025,0.028-0.037,0.069-0.053,0.098c0.064,0.14,0.178,0.071,0.264,0.071
		c2.801,0.004,5.604,0.009,8.404-0.005c0.309-0.002,0.385,0.063,0.383,0.379c-0.014,3.561-0.014,7.123,0,10.684
		c0,0.299-0.07,0.369-0.363,0.356c-0.59-0.025-1.184,0.013-1.773-0.017c-0.295-0.014-0.328,0.097-0.326,0.349
		c0.008,3.772,0.004,7.545,0.004,11.317c0,3.294-0.004,6.588,0.01,9.881c0,0.329-0.045,0.437-0.414,0.437
		c-11.895-0.013-23.788-0.013-35.682,0c-0.365,0-0.416-0.102-0.414-0.435c0.01-7.065,0.004-14.132,0.02-21.198
		c0-0.391-0.117-0.451-0.459-0.434c-0.547,0.028-1.098-0.011-1.646,0.015c-0.289,0.015-0.365-0.052-0.365-0.354
		c0.014-2.956,0.008-5.912,0.008-8.868c0-0.591,0.016-1.183-0.006-1.773c-0.012-0.272,0.063-0.339,0.336-0.338
		c2.816,0.011,5.631,0.006,8.447,0.005C12.54,11.645,12.592,11.645,12.735,11.645z"/>
	<path fill-rule="evenodd" clip-rule="evenodd" fill="none" stroke="#FFFFFF" stroke-width="0.5" stroke-miterlimit="10" d="
		M19.086,33.166c0,3.223-0.006,6.445,0.012,9.668c0.002,0.364-0.102,0.417-0.434,0.415c-3.434-0.014-6.869-0.013-10.303,0
		c-0.328,0.001-0.438-0.042-0.436-0.412c0.014-6.46,0.014-12.919,0-19.379c-0.002-0.364,0.1-0.417,0.434-0.415
		c3.434,0.014,6.867,0.017,10.301-0.004c0.393-0.002,0.436,0.119,0.434,0.458C19.083,26.72,19.086,29.943,19.086,33.166z"/>
	<path fill-rule="evenodd" clip-rule="evenodd" fill="none" stroke="#FFFFFF" stroke-width="0.5" stroke-miterlimit="10" d="
		M29.731,33.101c0-3.223,0.004-6.445-0.008-9.668c0-0.291,0.035-0.394,0.371-0.392c3.477,0.017,6.953,0.014,10.43,0.003
		c0.283-0.001,0.365,0.047,0.365,0.353c-0.01,6.502-0.01,13.003-0.002,19.505c0,0.253-0.035,0.349-0.328,0.348
		c-3.504-0.013-7.008-0.014-10.512,0.001c-0.309,0.001-0.32-0.116-0.32-0.354C29.733,39.631,29.731,36.366,29.731,33.101z"/>
	<path fill-rule="evenodd" clip-rule="evenodd" fill="none" stroke="#FFFFFF" stroke-width="0.5" stroke-miterlimit="10" d="
		M27.872,28.377c0,4.827-0.002,9.655,0.006,14.482c0.002,0.289-0.033,0.396-0.369,0.392c-2.111-0.021-4.223-0.015-6.333-0.004
		c-0.25,0.001-0.322-0.041-0.322-0.312c0.008-9.738,0.008-19.479,0.002-29.218c0-0.222,0.031-0.305,0.285-0.304
		c2.139,0.012,4.278,0.015,6.417-0.003c0.313-0.003,0.318,0.123,0.318,0.356C27.872,18.638,27.872,23.507,27.872,28.377z"/>
	<path fill-rule="evenodd" clip-rule="evenodd" fill="none" stroke="#FFFFFF" stroke-width="0.5" stroke-miterlimit="10" d="
		M12.288,21.277c-2.139,0-4.277-0.005-6.416,0.005c-0.279,0.002-0.4-0.019-0.396-0.366c0.021-2.377,0.021-4.755,0-7.133
		c-0.002-0.341,0.109-0.369,0.395-0.369c4.277,0.009,8.555,0.008,12.832,0c0.281,0,0.4,0.019,0.396,0.366
		c-0.021,2.377-0.021,4.756,0,7.133c0.002,0.342-0.109,0.37-0.395,0.369C16.565,21.271,14.426,21.277,12.288,21.277z"/>
	<path fill-rule="evenodd" clip-rule="evenodd" fill="none" stroke="#FFFFFF" stroke-width="0.5" stroke-miterlimit="10" d="
		M36.573,13.42c2.125,0,4.25,0.005,6.375-0.006c0.283-0.001,0.396,0.025,0.395,0.368c-0.021,2.378-0.016,4.756-0.004,7.134
		c0.002,0.279-0.041,0.37-0.35,0.369c-4.305-0.012-8.611-0.012-12.916,0c-0.313,0.001-0.352-0.092-0.35-0.37
		c0.012-2.378,0.018-4.756-0.004-7.133c-0.004-0.345,0.113-0.368,0.396-0.367C32.269,13.425,34.421,13.42,36.573,13.42z"/>
	<path fill-rule="evenodd" clip-rule="evenodd" fill="none" stroke="#FFFFFF" stroke-width="0.5" stroke-miterlimit="10" d="
		M29.554,11.478c-1.096,0-2.193-0.002-3.291,0.001c-0.305,0-0.635,0.004-0.805-0.282c-0.174-0.293,0.057-0.587,0.195-0.815
		c0.518-0.85,1.277-1.498,1.998-2.166c0.541-0.501,1.152-0.931,1.76-1.354c0.908-0.632,1.848-1.254,2.949-1.452
		c0.689-0.125,1.4,0.116,1.949,0.566c1.313,1.077,1.564,2.814,0.654,4.24c-0.525,0.821-1.283,1.308-2.33,1.269
		C31.61,11.448,30.581,11.478,29.554,11.478z"/>
	<path fill-rule="evenodd" clip-rule="evenodd" fill="none" stroke="#FFFFFF" stroke-width="0.5" stroke-miterlimit="10" d="
		M19.225,11.478c-1.012,0-2.029-0.059-3.035,0.015c-1.334,0.097-2.473-1.107-2.76-2.236c-0.287-1.123-0.02-2.153,0.781-2.979
		c0.773-0.798,1.926-1.171,3.066-0.613c1.408,0.689,2.707,1.541,3.877,2.592c0.797,0.714,1.611,1.402,2.111,2.375
		c0.268,0.521,0.072,0.839-0.539,0.844C21.559,11.484,20.393,11.478,19.225,11.478z"/>
</g>
</svg>
