<?xml version="1.0" encoding="utf-8"?>
<!-- Generator: Adobe Illustrator 16.0.0, SVG Export Plug-In . SVG Version: 6.00 Build 0)  -->
<!DOCTYPE svg PUBLIC "-//W3C//DTD SVG 1.1//EN" "http://www.w3.org/Graphics/SVG/1.1/DTD/svg11.dtd">
<svg version="1.1" id="Layer_1" xmlns="http://www.w3.org/2000/svg" xmlns:xlink="http://www.w3.org/1999/xlink" x="0px" y="0px"
	 width="48.818px" height="48.643px" viewBox="0 0 48.818 48.643" enable-background="new 0 0 48.818 48.643" xml:space="preserve">
<rect fill-rule="evenodd" clip-rule="evenodd" fill="#293542" stroke="#000000" stroke-width="0.1761" stroke-miterlimit="10" width="48.818" height="48.643"/>
<g>
	<path fill-rule="evenodd" clip-rule="evenodd" fill="none" stroke="#FFFFFF" stroke-width="0.5" stroke-miterlimit="10" d="
		M26.129,3.378c0.906,0.172,1.829,0.282,2.716,0.526c2.478,0.682,4.568,2.018,6.272,3.941c1.814,2.048,2.954,4.44,3.369,7.135
		c0.196,1.272,0.186,2.576,0.241,3.866c0.014,0.317,0.042,0.465,0.427,0.504c2.437,0.249,4.66,2.402,4.862,4.847
		c0.122,1.484,0.18,3.018-0.052,4.477c-0.412,2.604-2.442,4.301-5.234,4.664c-0.084,0.561-0.146,1.139-0.257,1.705
		c-0.507,2.607-1.782,4.717-4.064,6.148c-1.048,0.656-2.196,1.076-3.417,1.277c-0.241,0.039-0.37,0.135-0.459,0.373
		c-0.547,1.469-1.885,2.396-3.457,2.412c-0.872,0.01-1.746,0.02-2.618-0.002c-1.615-0.037-2.808-0.795-3.434-2.27
		c-0.619-1.459-0.337-2.84,0.745-4.01c0.676-0.732,1.559-1.104,2.547-1.129c1.074-0.025,2.157-0.045,3.225,0.055
		c1.368,0.127,2.334,0.91,2.904,2.154c0.121,0.264,0.231,0.334,0.513,0.268c2.978-0.697,4.727-2.586,5.391-5.531
		c0.077-0.346,0.12-0.697,0.169-1.049c0.017-0.117,0.002-0.24,0.002-0.414c-0.44,0-0.874,0.006-1.307,0
		c-0.739-0.012-1.171-0.422-1.172-1.166c-0.008-3.898-0.007-7.799-0.001-11.697c0.002-0.76,0.438-1.179,1.199-1.194
		c0.436-0.01,0.87-0.002,1.362-0.002c0-0.563,0.009-1.104-0.001-1.644c-0.06-3.201-0.99-6.085-3.174-8.484
		c-1.747-1.92-3.916-3.105-6.491-3.471c-2.159-0.306-4.321-0.305-6.442,0.3c-2.4,0.686-4.336,2.059-5.826,4.053
		c-1.673,2.24-2.389,4.796-2.445,7.561c-0.012,0.518,0,1.036,0.004,1.554c0,0.025,0.016,0.05,0.043,0.13
		c0.396,0,0.814-0.002,1.23,0.002c0.859,0.007,1.282,0.419,1.283,1.277c0.004,3.846,0.004,7.689,0,11.533
		c-0.001,0.85-0.406,1.256-1.248,1.258c-1.145,0-2.291,0.01-3.435-0.025c-2.552-0.076-5.005-2.195-5.274-4.744
		c-0.162-1.545-0.203-3.154,0.052-4.677c0.431-2.579,2.477-4.28,5.077-4.572c0.026-0.003,0.051-0.016,0.143-0.045
		c0-0.149,0.005-0.321,0-0.491c-0.037-1.694,0.055-3.378,0.499-5.023c0.927-3.428,2.783-6.209,5.763-8.194
		c1.838-1.225,3.867-1.905,6.06-2.121c0.093-0.009,0.183-0.042,0.274-0.065C23.838,3.378,24.983,3.378,26.129,3.378z M12.63,31.25
		c0.032-0.152,0.048-0.191,0.048-0.23c0.003-3.104,0-6.209,0.009-9.313c0-0.269-0.119-0.316-0.348-0.31
		c-0.748,0.023-1.496,0.015-2.243,0.056c-1.603,0.088-3.108,1.584-3.192,3.183c-0.049,0.924-0.067,1.852-0.053,2.775
		c0.031,1.861,1.058,3.297,2.77,3.654C10.591,31.268,11.621,31.197,12.63,31.25z M36.201,31.189c0.837,0,1.629,0.039,2.417-0.008
		c1.74-0.107,3.184-1.486,3.311-3.16c0.078-1.029,0.112-2.072,0.047-3.102c-0.114-1.786-1.129-3.041-2.833-3.393
		c-0.942-0.196-1.941-0.122-2.941-0.171C36.201,24.684,36.201,27.918,36.201,31.189z M25.757,43.135
		c0.449,0,0.898,0.012,1.348-0.002c0.854-0.025,1.524-0.695,1.556-1.535c0.03-0.793-0.565-1.535-1.391-1.586
		c-1.003-0.059-2.015-0.064-3.018-0.002c-0.902,0.055-1.459,0.791-1.4,1.686c0.053,0.799,0.743,1.424,1.597,1.439
		C24.885,43.143,25.32,43.137,25.757,43.135z"/>
</g>
</svg>
