<?xml version="1.0" encoding="utf-8"?>
<!-- Generator: Adobe Illustrator 16.0.0, SVG Export Plug-In . SVG Version: 6.00 Build 0)  -->
<!DOCTYPE svg PUBLIC "-//W3C//DTD SVG 1.1//EN" "http://www.w3.org/Graphics/SVG/1.1/DTD/svg11.dtd">
<svg version="1.1" id="Layer_1" xmlns="http://www.w3.org/2000/svg" xmlns:xlink="http://www.w3.org/1999/xlink" x="0px" y="0px"
	 width="150px" height="115.333px" viewBox="0 0 150 115.333" enable-background="new 0 0 150 115.333" xml:space="preserve">
<g>
	<path fill-rule="evenodd" clip-rule="evenodd" fill="none" stroke="#FFFFFF" stroke-width="6.1711" stroke-miterlimit="2.6131" d="
		M68.956,95.211c21.05,0,38.221-17.171,38.221-38.221S90.006,18.771,68.956,18.771c-21.05,0-38.219,17.169-38.219,38.219
		S47.906,95.211,68.956,95.211z"/>
	
		<path fill-rule="evenodd" clip-rule="evenodd" fill="#727682" stroke="#630629" stroke-width="0.0773" stroke-linecap="square" stroke-miterlimit="2.6131" d="
		M68.883,23.467c0.05,6.761,0.038,13.822,0.091,20.584l32.671-22.145l0.267-20.191L68.883,23.467z"/>
	
		<polygon fill-rule="evenodd" clip-rule="evenodd" fill="#FFFFFF" stroke="#630629" stroke-width="0.0773" stroke-linecap="square" stroke-miterlimit="2.6131" points="
		57.727,17.227 68.956,23.418 68.974,44.051 57.762,35.71 	"/>
	
		<polygon fill-rule="evenodd" clip-rule="evenodd" fill="#FFFFFF" stroke="#630629" stroke-width="0.0773" stroke-linecap="square" stroke-miterlimit="2.6131" points="
		57.771,49.553 69.277,56.691 69.162,112.334 57.917,102.94 	"/>
	
		<polygon fill-rule="evenodd" clip-rule="evenodd" fill="#727682" stroke="#630629" stroke-width="0.0773" stroke-linecap="square" stroke-miterlimit="2.6131" points="
		69.443,56.968 103.046,33.605 102.798,52.066 80.782,68.619 81.014,102.859 69.162,112.334 	"/>
	<polygon fill-rule="evenodd" clip-rule="evenodd" fill="#FFFFFF" points="57.727,17.227 68.956,23.418 68.974,44.051 57.762,35.71 
			"/>
	<polygon fill-rule="evenodd" clip-rule="evenodd" fill="#FFFFFF" points="57.771,49.553 69.277,56.691 69.162,112.334 
		57.917,102.94 	"/>
	<path fill-rule="evenodd" clip-rule="evenodd" fill="#727682" d="M68.883,23.467c0.05,6.761,0.038,13.822,0.091,20.584
		l32.671-22.145l0.267-20.191L68.883,23.467z"/>
	<polygon fill-rule="evenodd" clip-rule="evenodd" fill="#727682" points="69.277,56.691 103.046,33.605 102.798,52.066 
		80.782,68.619 81.014,102.859 69.162,112.334 	"/>
</g>
</svg>
