<?xml version="1.0" encoding="utf-8"?>
<!-- Generator: Adobe Illustrator 16.0.0, SVG Export Plug-In . SVG Version: 6.00 Build 0)  -->
<!DOCTYPE svg PUBLIC "-//W3C//DTD SVG 1.1//EN" "http://www.w3.org/Graphics/SVG/1.1/DTD/svg11.dtd">
<svg version="1.1" id="Layer_1" xmlns="http://www.w3.org/2000/svg" xmlns:xlink="http://www.w3.org/1999/xlink" x="0px" y="0px"
	 width="48.818px" height="48.643px" viewBox="0 0 48.818 48.643" enable-background="new 0 0 48.818 48.643" xml:space="preserve">
<rect fill-rule="evenodd" clip-rule="evenodd" fill="#293542" stroke="#000000" stroke-width="0.1761" stroke-miterlimit="10" width="48.818" height="48.643"/>
<g>
	<path fill="none" stroke="#FFFFFF" stroke-width="0.5" stroke-miterlimit="10" d="M13.528,41.037c7.278,0,14.521,0,21.782,0
		c0-11.498,0-22.967,0-34.47c-7.289,0-14.543,0-21.782,0C13.528,18.082,13.528,29.564,13.528,41.037z"/>
	<path fill="none" stroke="#FFFFFF" stroke-width="0.5" stroke-miterlimit="10" d="M37.521,23.486
		c0-6.117-0.001-12.234,0.002-18.353c0-0.85-0.219-1.609-0.777-2.273c-0.474-0.564-1.113-0.829-1.77-1.079
		c-7.044,0-14.087,0-21.132,0c-0.035,0.025-0.066,0.065-0.105,0.073c-1.457,0.325-2.464,1.688-2.455,3.412
		c0.036,6.573,0.015,13.144,0.015,19.716c0,6.176,0.001,12.352-0.002,18.527c0,0.85,0.222,1.609,0.778,2.273
		c0.475,0.564,1.112,0.83,1.77,1.078c7.045,0,14.088,0,21.132,0c0.034-0.023,0.066-0.064,0.105-0.072
		c1.476-0.332,2.463-1.701,2.454-3.412C37.501,36.746,37.521,30.115,37.521,23.486z M21.354,3.975
		c1.025,0.006,2.053,0.002,3.078,0.002c1.011,0,2.022,0.004,3.034-0.002c0.275-0.002,0.52,0.032,0.523,0.372
		c0.003,0.348-0.256,0.373-0.523,0.373c-2.037-0.002-4.075-0.002-6.112,0c-0.268,0-0.525-0.024-0.523-0.372
		C20.834,4.007,21.078,3.973,21.354,3.975z M24.408,45.188c-0.885,0-1.516-0.639-1.516-1.531c0-0.867,0.57-1.396,1.505-1.395
		c0.912,0,1.527,0.605,1.527,1.5C25.926,44.574,25.271,45.189,24.408,45.188z M35.311,41.037c-7.262,0-14.504,0-21.782,0
		c0-11.473,0-22.955,0-34.47c7.239,0,14.493,0,21.782,0C35.311,18.07,35.311,29.539,35.311,41.037z"/>
</g>
</svg>
