<?xml version="1.0" encoding="utf-8"?>
<!-- Generator: Adobe Illustrator 16.0.0, SVG Export Plug-In . SVG Version: 6.00 Build 0)  -->
<!DOCTYPE svg PUBLIC "-//W3C//DTD SVG 1.1//EN" "http://www.w3.org/Graphics/SVG/1.1/DTD/svg11.dtd">
<svg version="1.1" id="Layer_1" xmlns="http://www.w3.org/2000/svg" xmlns:xlink="http://www.w3.org/1999/xlink" x="0px" y="0px"
	 width="80px" height="91px" viewBox="0 0 80 91" enable-background="new 0 0 80 91" xml:space="preserve">
<g>
	<g>
		<path fill="none" stroke="#A00058" stroke-width="1.2036" stroke-miterlimit="10" d="M75.594,83.057c0-23.516,0-46.976,0-70.417
			c-23.504,0-46.947,0-70.393,0c0,23.502,0,46.942,0,70.417C28.677,83.057,52.104,83.057,75.594,83.057z"/>
		<path fill="none" stroke="#A00058" stroke-width="1.2036" stroke-miterlimit="10" d="M70.389,30.804
			c0,1.492-0.006,4.4-0.006,5.949c0,12.888,0,25.778,0,38.667c0,1.822-0.572,2.391-2.4,2.391c-18.391,0-36.778,0-55.166,0
			c-1.821,0-2.391-0.572-2.391-2.402c0-1.461,0.021-2.926-0.019-4.389c-0.008-0.26-0.186-0.629-0.4-0.754
			c-1.605-0.953-2.381-2.365-2.396-4.189c-0.026-2.799-0.024-5.6,0-8.398c0.014-1.859,0.797-3.295,2.441-4.238
			c0.184-0.107,0.355-0.42,0.357-0.635c0.021-3.307,0.023-6.61-0.002-9.913c-0.002-0.232-0.199-0.56-0.402-0.68
			c-1.601-0.952-2.379-2.362-2.395-4.193c-0.024-2.801-0.024-5.603,0-8.4c0.014-1.856,0.794-3.293,2.446-4.232
			c0.198-0.113,0.351-0.466,0.354-0.715c0.031-1.562,0.01-3.127,0.018-4.692c0.007-1.455,0.67-2.12,2.139-2.12
			c18.562-0.003,37.127-0.003,55.698,0c1.404,0,2.109,0.65,2.115,1.986c0.014,3.356,0.004,6.711,0.004,10.065
			c0,0.795,0.004,1.505,0.004,2.659 M12.183,28.39c-0.641-0.002-1.035,0.47-1.047,1.297c-0.012,1.361-0.002,2.718-0.002,4.079
			c0,1.385-0.01,2.769,0.002,4.151c0.008,0.846,0.386,1.298,1.032,1.303 M12.142,56.453c-0.648,0.02-1.004,0.455-1.006,1.328
			c-0.01,2.717-0.007,5.438,0,8.154c0.002,0.879,0.404,1.361,1.072,1.342"/>
		<path fill="none" stroke="#A00058" stroke-width="1.2036" stroke-miterlimit="10" d="M45.666,47.81
			c-0.037-2.875-2.455-5.271-5.286-5.233c-2.875,0.038-5.269,2.456-5.236,5.287c0.038,2.875,2.457,5.268,5.29,5.232
			C43.307,53.061,45.701,50.639,45.666,47.81z M28.304,49.922c1.064-0.348,2.052-0.645,3.014-1.006
			c0.164-0.064,0.296-0.395,0.324-0.615c0.12-0.896,0.035-1.853,0.326-2.678c0.459-1.308,1.164-2.53,1.822-3.905
			c-0.555-0.766-1.229-1.697-1.946-2.682C28.901,42.125,27.707,45.687,28.304,49.922z M52.512,49.922
			c0.578-4.243-0.59-7.812-3.555-10.879c-0.709,0.98-1.387,1.913-2.086,2.88c1.627,1.926,2.459,4.102,2.287,6.618
			c-0.008,0.119,0.152,0.322,0.271,0.367C50.424,49.254,51.428,49.568,52.512,49.922z M34.691,36.983
			c0.651,0.896,1.223,1.724,1.846,2.509c0.117,0.146,0.479,0.237,0.66,0.174c2.146-0.788,4.276-0.792,6.42,0.009
			c0.164,0.06,0.484,0.045,0.568-0.063c0.654-0.842,1.27-1.714,1.938-2.626C42.271,35.112,38.539,35.112,34.691,36.983z
			 M29.404,53.268c2.027,3.744,5.031,5.949,9.229,6.707c0-1.135,0.019-2.188-0.019-3.238c-0.005-0.15-0.244-0.367-0.414-0.416
			c-2.21-0.611-3.928-1.881-5.195-3.787c-0.099-0.148-0.381-0.311-0.521-0.268C31.48,52.559,30.49,52.902,29.404,53.268z
			 M42.174,59.979c4.203-0.775,7.221-2.957,9.225-6.717c-1.07-0.354-2.037-0.695-3.023-0.98c-0.158-0.043-0.475,0.113-0.584,0.27
			c-1.271,1.904-2.99,3.164-5.201,3.775c-0.168,0.047-0.393,0.277-0.398,0.43C42.16,57.807,42.174,58.859,42.174,59.979z"/>
	</g>
</g>
</svg>
