<?xml version="1.0" encoding="utf-8"?>
<!-- Generator: Adobe Illustrator 16.0.0, SVG Export Plug-In . SVG Version: 6.00 Build 0)  -->
<!DOCTYPE svg PUBLIC "-//W3C//DTD SVG 1.1//EN" "http://www.w3.org/Graphics/SVG/1.1/DTD/svg11.dtd">
<svg version="1.1" id="Layer_1" xmlns="http://www.w3.org/2000/svg" xmlns:xlink="http://www.w3.org/1999/xlink" x="0px" y="0px"
	 width="80px" height="91px" viewBox="0 0 80 91" enable-background="new 0 0 80 91" xml:space="preserve">
<g>
	<g>
		<path fill="none" stroke="#A00058" stroke-width="1.2036" stroke-miterlimit="10" d="M74.107,11.704l-0.398-1.344l-1.566-0.179
			c-2.973-0.336-5.887-4.236-6.672-5.58l-0.662-1.114H15.223l-0.651,1.114c-0.78,1.342-3.674,5.242-6.672,5.577l-1.571,0.178
			l-0.393,1.348c-17.894,60.48,32.901,75.5,33.421,75.635l0.676,0.174l0.677-0.174C41.227,87.194,91.863,71.726,74.107,11.704z"/>
		<path fill="none" stroke="#A00058" stroke-width="1.0765" stroke-miterlimit="10" d="M70.506,15.273l-0.356-1.202l-1.4-0.16
			c-2.659-0.301-5.266-3.789-5.968-4.991l-0.592-0.997H17.839L17.257,8.92c-0.698,1.2-3.286,4.688-5.968,4.988l-1.405,0.159
			l-0.351,1.206C-6.472,69.367,38.96,82.801,39.425,82.921l0.604,0.155l0.605-0.155C41.098,82.791,86.387,68.957,70.506,15.273z"/>
		<g>
			<path fill="none" stroke="#A00058" stroke-width="1.2036" stroke-miterlimit="10" d="M40.046,37.061
				c-4.317,0-8.635-0.012-12.949,0.002c-2.808,0.007-4.822,1.984-4.829,4.782c-0.018,5.672-0.018,11.344-0.002,17.018
				c0.009,2.791,2.038,4.785,4.831,4.785c8.602,0,17.205,0,25.808,0c2.788,0,4.824-1.994,4.829-4.785
				c0.017-5.674,0.025-11.346-0.015-17.018c-0.005-0.723-0.179-1.505-0.488-2.155c-0.849-1.782-2.355-2.627-4.326-2.627
				C48.614,37.057,44.331,37.061,40.046,37.061z M52.415,35.259c0-1.663,0.024-3.282-0.004-4.897
				c-0.046-2.453-0.854-4.639-2.434-6.521c-2.088-2.482-4.774-3.907-7.964-4.345c-4.396-0.604-8.257,0.544-11.415,3.709
				c-1.771,1.776-2.821,3.947-2.949,6.483c-0.088,1.726-0.055,3.454-0.068,5.185c0,0.121,0.016,0.242,0.033,0.386
				C35.87,35.259,44.109,35.259,52.415,35.259z"/>
			<path fill="none" stroke="#A00058" stroke-width="1.2036" stroke-miterlimit="10" d="M41.771,48.589c0-0.844,0.01-1.68,0-2.518
				c-0.007-1.134-0.753-1.923-1.789-1.918c-1.02,0.007-1.75,0.788-1.756,1.889c-0.01,1.68-0.01,3.359,0,5.041
				c0,1.133,0.74,1.91,1.784,1.91c1.034-0.004,1.754-0.793,1.761-1.936C41.778,50.241,41.771,49.413,41.771,48.589z"/>
		</g>
	</g>
</g>
</svg>
