<?xml version="1.0" encoding="utf-8"?>
<!-- Generator: Adobe Illustrator 16.0.0, SVG Export Plug-In . SVG Version: 6.00 Build 0)  -->
<!DOCTYPE svg PUBLIC "-//W3C//DTD SVG 1.1//EN" "http://www.w3.org/Graphics/SVG/1.1/DTD/svg11.dtd">
<svg version="1.1" id="Layer_1" xmlns="http://www.w3.org/2000/svg" xmlns:xlink="http://www.w3.org/1999/xlink" x="0px" y="0px"
	 width="48.818px" height="48.643px" viewBox="0 0 48.818 48.643" enable-background="new 0 0 48.818 48.643" xml:space="preserve">
<rect fill-rule="evenodd" clip-rule="evenodd" fill="#293542" stroke="#000000" stroke-width="0.1761" stroke-miterlimit="10" width="48.818" height="48.643"/>
<g>
	<g>
		<path fill-rule="evenodd" clip-rule="evenodd" fill="none" stroke="#FFFFFF" stroke-width="0.5" stroke-miterlimit="10" d="
			M47.358,25.839c-0.117,0.823-0.215,1.651-0.355,2.472c-0.629,3.721-2.113,7.073-4.438,10.039
			c-3.557,4.537-8.158,7.444-13.832,8.502c-6.071,1.132-11.741,0.002-16.938-3.376c-0.289-0.188-0.578-0.371-0.854-0.576
			c-0.676-0.505-0.834-1.358-0.389-2.023c0.443-0.662,1.289-0.826,2.02-0.407c1.305,0.749,2.563,1.601,3.93,2.211
			c3.299,1.476,6.773,1.936,10.364,1.479c0.309-0.04,0.617-0.081,0.979-0.129c-0.143-0.638-0.277-1.239-0.414-1.854
			c-0.82,0.06-1.617,0.127-2.416,0.174c-2.05,0.12-4.052-0.171-5.999-0.794c-2.609-0.835-4.928-2.176-6.93-4.059
			c-2.139-2.009-3.703-4.39-4.697-7.15c-1.016-2.823-1.336-5.725-0.826-8.678c1.254-7.244,5.422-12.06,12.311-14.553
			c0.475-0.172,0.971-0.288,1.465-0.399c0.531-0.12,1.002,0.165,1.162,0.664c0.154,0.481-0.09,0.992-0.617,1.179
			c-0.715,0.253-1.457,0.431-2.166,0.699c-3.088,1.171-5.574,3.126-7.492,5.811c-0.016,0.022-0.02,0.054-0.047,0.135
			c0.682,0.419,1.375,0.844,2.094,1.287c0.273-0.335,0.523-0.665,0.795-0.976c2.711-3.114,6.145-4.762,10.259-4.786
			c6.346-0.036,11.707,4.217,13.24,10.229c0.869,3.409,0.447,6.684-1.188,9.801c-0.219,0.417-0.527,0.699-1.016,0.675
			c-0.402-0.022-0.762-0.23-0.826-0.633c-0.051-0.325,0.002-0.718,0.148-1.012c0.602-1.213,1.041-2.468,1.225-3.812
			c0.404-2.964-0.199-5.709-1.885-8.174c-1.807-2.644-4.301-4.312-7.465-4.901c-6.124-1.14-11.952,2.627-13.442,8.69
			c-0.586,2.384-0.408,4.729,0.523,7.087c0.826-0.418,1.627-0.823,2.398-1.213c-0.152-0.783-0.342-1.518-0.432-2.266
			c-0.211-1.77,0.16-3.442,0.969-5.019c0.264-0.511,0.814-0.687,1.295-0.46c0.482,0.228,0.686,0.738,0.449,1.29
			c-0.373,0.866-0.678,1.742-0.779,2.69c-0.379,3.56,2.348,7.005,5.901,7.432c3.738,0.449,6.967-1.846,7.732-5.499
			c0.803-3.824-1.951-7.656-5.838-8.154c-1.121-0.144-2.198-0.023-3.261,0.342c-0.221,0.076-0.463,0.131-0.695,0.131
			c-0.445-0.001-0.805-0.347-0.891-0.801c-0.08-0.427,0.164-0.898,0.639-1.06c0.633-0.216,1.277-0.43,1.936-0.532
			c4.337-0.671,8.522,1.961,9.815,6.144c1.49,4.82-1.395,9.95-6.297,11.197c-3.435,0.874-7.106-0.424-9.237-3.262
			c-0.105-0.143-0.215-0.281-0.35-0.456c-0.822,0.418-1.629,0.828-2.463,1.252c0.953,1.532,2.168,2.764,3.67,3.703
			c4.221,2.642,9.468,2.362,13.403-0.701c0.141-0.109,0.277-0.228,0.428-0.324c0.494-0.317,1.041-0.242,1.359,0.178
			c0.32,0.423,0.277,0.995-0.18,1.356c-0.631,0.498-1.275,0.993-1.967,1.398c-2.551,1.493-5.33,2.146-8.253,1.77
			c-5.395-0.693-9.215-3.591-11.246-8.647c-1.43-3.562-1.24-7.146,0.369-10.642c0.049-0.106,0.086-0.219,0.139-0.357
			c-0.711-0.435-1.406-0.86-2.127-1.3c-0.725,1.35-1.24,2.745-1.496,4.217c-1.082,6.234,0.744,11.476,5.525,15.617
			c2.33,2.018,5.094,3.212,8.164,3.56c5.813,0.658,10.665-1.264,14.474-5.69c2.01-2.338,3.199-5.095,3.566-8.164
			c0.609-5.123-0.869-9.594-4.426-13.328c-2.16-2.268-4.82-3.73-7.875-4.454c-0.16-0.038-0.322-0.071-0.475-0.127
			c-0.541-0.196-0.805-0.683-0.66-1.204c0.133-0.488,0.609-0.777,1.158-0.669c1.918,0.379,3.717,1.083,5.402,2.068
			c0.463,0.271,0.91,0.567,1.418,0.884c0.406-0.477,0.816-0.959,1.242-1.46c-1.877-1.354-3.885-2.387-6.09-2.993
			c-6.743-1.851-12.903-0.639-18.347,3.746c-3.84,3.094-6.207,7.153-7.012,12.025c-1,6.064,0.51,11.502,4.381,16.279
			c0.311,0.382,0.568,0.782,0.496,1.295c-0.088,0.63-0.432,1.07-1.057,1.257c-0.633,0.188-1.15-0.027-1.561-0.506
			c-1.131-1.319-2.1-2.751-2.9-4.295c-1.422-2.748-2.281-5.656-2.52-8.746c-0.008-0.117-0.051-0.23-0.078-0.345
			c0-1.017,0-2.033,0-3.049c0.029-0.145,0.066-0.288,0.086-0.435c0.107-0.796,0.166-1.603,0.32-2.391
			c0.959-4.893,3.266-9.053,6.914-12.452c3.301-3.077,7.178-5.027,11.635-5.793c0.818-0.141,1.646-0.237,2.469-0.354
			c1.017,0,2.032,0,3.048,0c0.131,0.028,0.258,0.067,0.387,0.084c0.813,0.107,1.635,0.163,2.438,0.323
			c5.639,1.123,10.238,3.962,13.787,8.478c2.336,2.973,3.828,6.335,4.461,10.067c0.139,0.82,0.236,1.648,0.354,2.472
			C47.358,23.806,47.358,24.822,47.358,25.839z M36.46,10.789c4.996,4.897,7.082,10.731,5.512,17.567
			c-1.57,6.837-6.018,11.158-12.625,13.391c0.141,0.608,0.281,1.223,0.422,1.839c7.537-2.093,13.617-8.618,14.514-17.04
			c0.723-6.806-1.6-12.51-6.58-17.219C37.253,9.856,36.858,10.321,36.46,10.789z"/>
	</g>
	<g>
		<path fill-rule="evenodd" clip-rule="evenodd" fill="none" stroke="#FFFFFF" stroke-width="0.5" stroke-miterlimit="10" d="
			M24.511,21.355c-0.23-0.372-0.529-0.579-0.881-0.721c-0.351-0.14-0.712-0.205-1.093-0.194c-0.41,0.013-0.822,0.004-1.234,0.003
			c-0.063-0.001-0.127-0.003-0.188-0.016c-0.105-0.021-0.137-0.075-0.07-0.172c0.16-0.234,0.32-0.469,0.473-0.707
			c0.064-0.101,0.154-0.094,0.25-0.094c1.305,0.001,2.608,0.001,3.913,0.001c0.639,0,1.279-0.001,1.918,0.001
			c0.072,0.001,0.166-0.035,0.207,0.048c0.043,0.086-0.027,0.153-0.072,0.221c-0.127,0.189-0.26,0.375-0.377,0.569
			c-0.066,0.112-0.15,0.152-0.279,0.15c-0.41-0.005-0.822-0.003-1.234,0c-0.053,0-0.129-0.025-0.15,0.04
			c-0.01,0.035,0.029,0.092,0.057,0.132c0.119,0.175,0.197,0.367,0.254,0.568c0.033,0.121,0.088,0.175,0.223,0.173
			c0.469-0.008,0.938-0.004,1.406-0.002c0.213,0.001,0.227,0.03,0.127,0.214c-0.133,0.246-0.309,0.462-0.461,0.693
			c-0.053,0.078-0.123,0.079-0.199,0.079c-0.266,0.001-0.531,0.007-0.797-0.001c-0.141-0.005-0.205,0.027-0.244,0.182
			c-0.234,0.905-0.805,1.516-1.666,1.877c-0.459,0.192-0.943,0.262-1.44,0.356c0.105,0.206,0.264,0.354,0.396,0.517
			c0.569,0.699,1.147,1.391,1.722,2.085c0.408,0.495,0.816,0.993,1.229,1.486c0.072,0.087,0.111,0.178,0.07,0.277
			c-0.045,0.105-0.156,0.059-0.238,0.06c-0.336,0.006-0.672-0.002-1.006,0.005c-0.127,0.002-0.217-0.039-0.297-0.133
			c-0.68-0.796-1.363-1.589-2.042-2.385c-0.465-0.547-0.926-1.099-1.393-1.645c-0.08-0.094-0.107-0.192-0.104-0.311
			c0.006-0.184,0.01-0.368-0.002-0.552c-0.008-0.161,0.072-0.209,0.207-0.181c0.252,0.053,0.504,0.039,0.756,0.032
			c0.555-0.016,1.092-0.113,1.579-0.396c0.41-0.238,0.693-0.581,0.811-1.048c0.053-0.209,0.039-0.226-0.184-0.226
			c-0.91-0.002-1.823,0.002-2.733-0.003c-0.209-0.001-0.416-0.024-0.623-0.038c-0.096-0.006-0.131-0.046-0.072-0.133
			c0.168-0.245,0.336-0.489,0.506-0.731c0.063-0.092,0.162-0.084,0.258-0.084c0.822,0.001,1.646,0,2.47,0
			C24.329,21.355,24.397,21.355,24.511,21.355z"/>
	</g>
</g>
</svg>
