<?xml version="1.0" encoding="utf-8"?>
<!-- Generator: Adobe Illustrator 16.0.0, SVG Export Plug-In . SVG Version: 6.00 Build 0)  -->
<!DOCTYPE svg PUBLIC "-//W3C//DTD SVG 1.1//EN" "http://www.w3.org/Graphics/SVG/1.1/DTD/svg11.dtd">
<svg version="1.1" id="Layer_1" xmlns="http://www.w3.org/2000/svg" xmlns:xlink="http://www.w3.org/1999/xlink" x="0px" y="0px"
	 width="80px" height="91px" viewBox="0 0 80 91" enable-background="new 0 0 80 91" xml:space="preserve">
<g>
	<g>
		<path fill="none" stroke="#660030" stroke-width="1.2036" stroke-miterlimit="10" d="M6.82,56.612
			c-0.921-1.158-1.923-2.305-2.561-3.617c-0.688-1.422-0.996-3.027-1.47-4.557c-0.055-0.184-0.098-0.367-0.147-0.557
			c0.005-0.971,0.005-1.944,0.005-2.918c0.278-1.104,0.504-2.219,0.849-3.298c0.619-1.932,1.698-3.605,3.079-5.081"/>
		<path fill="none" stroke="#660030" stroke-width="1.2036" stroke-miterlimit="10" d="M73.518,36.476
			c2.131,2.239,3.424,4.884,3.881,7.94c0.029,0.184,0.099,0.362,0.15,0.545c-0.005,0.976-0.005,1.95-0.005,2.924
			c-0.146,0.715-0.276,1.428-0.447,2.137c-0.619,2.52-1.868,4.693-3.66,6.555"/>
		<path fill="none" stroke="#660030" stroke-width="1.2036" stroke-miterlimit="10" d="M61.462,42.093
			c0,2.484-0.126,4.978,0.027,7.453c0.25,4.045,1.494,7.824,3.519,11.332c1.349,2.336,3.033,4.41,4.877,6.373
			c0.308,0.33,0.529,0.893,0.52,1.34c-0.021,0.725-0.657,0.951-1.296,1.057c-5.666,0.939-11.333,1.891-17.006,2.809
			c-0.528,0.086-0.794,0.342-1.042,0.768c-1.944,3.27-4.741,5.398-8.505,6.111c-3.915,0.744-7.406-0.289-10.348-2.936
			c-1.05-0.939-1.8-2.213-2.726-3.305c-0.224-0.27-0.567-0.543-0.895-0.602c-5.688-0.971-11.38-1.902-17.071-2.844
			c-0.576-0.098-1.086-0.281-1.301-0.904c-0.217-0.631,0.087-1.084,0.49-1.504c2.041-2.115,3.793-4.439,5.135-7.066
			c2.158-4.207,3.02-8.711,3.035-13.4c0.011-3.487,0.043-6.973-0.005-10.458c-0.108-7.895,5.282-14.399,11.472-17.067
			c0.959-0.415,1.955-0.74,2.948-1.063c0.407-0.135,0.557-0.321,0.565-0.766c0.05-2.626,1.158-4.626,3.539-5.853
			c3.7-1.91,8.503,0.718,8.857,4.853c0.132,1.481,0.14,1.444,1.617,1.924c6.462,2.1,10.962,6.211,12.835,12.848
			c0.447,1.591,0.525,3.312,0.609,4.978C61.413,38.141,61.462,40.123,61.462,42.093C61.505,42.095,61.419,42.093,61.462,42.093z"/>
		<path fill="none" stroke="#660030" stroke-width="1.2036" stroke-miterlimit="10" d="M68.261,38.979
			c1.958,2.088,2.905,4.574,2.918,7.282c-0.055,2.914-1.004,5.328-2.9,7.359"/>
		<path fill="none" stroke="#660030" stroke-width="1.2036" stroke-miterlimit="10" d="M12.81,54.161
			c-0.328-0.084-0.66-0.311-0.896-0.561c-1.928-2.037-2.865-4.484-2.9-7.292c0.03-2.785,0.968-5.228,2.878-7.286"/>
		<path fill="none" stroke="#660030" stroke-width="1.2036" stroke-miterlimit="10" d="M25.14,35.792
			c0.009-2.126,0.633-4.076,1.824-5.836c2.928-4.334,7.209-6.127,12.247-6.484c0.362-0.023,0.728-0.001,1.091-0.001
			c2.618-0.04,5.128,0.484,7.538,1.501"/>
	</g>
</g>
</svg>
