<?xml version="1.0" encoding="utf-8"?>
<!-- Generator: Adobe Illustrator 16.0.0, SVG Export Plug-In . SVG Version: 6.00 Build 0)  -->
<!DOCTYPE svg PUBLIC "-//W3C//DTD SVG 1.1//EN" "http://www.w3.org/Graphics/SVG/1.1/DTD/svg11.dtd">
<svg version="1.1" id="Layer_1" xmlns="http://www.w3.org/2000/svg" xmlns:xlink="http://www.w3.org/1999/xlink" x="0px" y="0px"
	 width="80px" height="91px" viewBox="0 0 80 91" enable-background="new 0 0 80 91" xml:space="preserve">
<g>
	<g>
		<path fill="none" stroke="#660030" stroke-width="1.2036" stroke-miterlimit="10" d="M75.063,78.472c0-23.516,0-46.976,0-70.417
			c-23.505,0-46.947,0-70.394,0c0,23.503,0,46.943,0,70.417C28.146,78.472,51.571,78.472,75.063,78.472z"/>
		<path fill="none" stroke="#660030" stroke-width="1.2036" stroke-miterlimit="10" d="M69.856,26.219c0,1.492-0.006,4.4-0.006,5.95
			c0,12.887,0,25.778,0,38.667c0,1.822-0.571,2.391-2.399,2.391c-18.391,0-36.778,0-55.166,0c-1.821,0-2.391-0.572-2.391-2.402
			c0-1.461,0.021-2.926-0.019-4.389c-0.008-0.26-0.186-0.629-0.4-0.754c-1.605-0.953-2.381-2.365-2.396-4.189
			c-0.026-2.799-0.024-5.6,0-8.398c0.014-1.859,0.797-3.295,2.441-4.238c0.184-0.107,0.355-0.42,0.357-0.635
			c0.021-3.307,0.023-6.61-0.002-9.914c-0.002-0.232-0.199-0.559-0.402-0.679c-1.601-0.952-2.379-2.362-2.395-4.194
			c-0.024-2.8-0.024-5.602,0-8.399c0.014-1.857,0.794-3.293,2.446-4.233c0.198-0.113,0.351-0.465,0.354-0.715
			c0.031-1.561,0.01-3.126,0.018-4.692c0.007-1.455,0.67-2.121,2.139-2.121c18.562-0.002,37.128-0.002,55.697,0
			c1.405,0,2.11,0.651,2.115,1.986c0.014,3.357,0.005,6.711,0.005,10.066c0,0.795,0.003,1.505,0.003,2.659 M11.651,23.805
			c-0.641-0.002-1.035,0.47-1.047,1.297c-0.012,1.361-0.002,2.717-0.002,4.079c0,1.385-0.01,2.769,0.002,4.151
			c0.008,0.846,0.386,1.298,1.032,1.302 M11.61,51.868c-0.648,0.02-1.004,0.455-1.006,1.328c-0.01,2.717-0.007,5.438,0,8.154
			c0.002,0.879,0.404,1.361,1.072,1.342"/>
		<path fill="none" stroke="#660030" stroke-width="1.2036" stroke-miterlimit="10" d="M45.135,43.224
			c-0.037-2.875-2.456-5.271-5.286-5.233c-2.875,0.038-5.269,2.457-5.236,5.287c0.038,2.875,2.457,5.268,5.29,5.232
			C42.774,48.476,45.17,46.054,45.135,43.224z M27.772,45.337c1.064-0.348,2.052-0.645,3.014-1.006
			c0.164-0.065,0.296-0.395,0.324-0.615c0.12-0.896,0.035-1.853,0.326-2.678c0.459-1.307,1.164-2.53,1.822-3.905
			c-0.555-0.766-1.229-1.697-1.946-2.682C28.369,37.54,27.175,41.102,27.772,45.337z M51.98,45.337
			c0.578-4.243-0.59-7.811-3.555-10.879c-0.71,0.98-1.387,1.914-2.087,2.88c1.627,1.925,2.459,4.102,2.287,6.617
			c-0.007,0.12,0.152,0.322,0.272,0.367C49.893,44.668,50.896,44.983,51.98,45.337z M34.159,32.399
			c0.651,0.896,1.223,1.723,1.846,2.508c0.117,0.146,0.479,0.237,0.66,0.174c2.146-0.788,4.276-0.792,6.42,0.009
			c0.165,0.059,0.484,0.045,0.569-0.063c0.653-0.841,1.27-1.713,1.937-2.625C41.74,30.528,38.007,30.528,34.159,32.399z
			 M28.872,48.683c2.027,3.744,5.031,5.949,9.229,6.707c0-1.135,0.019-2.188-0.019-3.238c-0.005-0.15-0.244-0.367-0.414-0.416
			c-2.21-0.611-3.928-1.881-5.195-3.787c-0.099-0.148-0.381-0.311-0.521-0.268C30.948,47.974,29.958,48.317,28.872,48.683z
			 M41.642,55.394c4.203-0.775,7.222-2.957,9.225-6.717c-1.069-0.354-2.036-0.695-3.023-0.98c-0.157-0.043-0.475,0.113-0.583,0.27
			c-1.271,1.904-2.99,3.164-5.202,3.775c-0.167,0.047-0.393,0.277-0.397,0.43C41.628,53.222,41.642,54.274,41.642,55.394z"/>
	</g>
</g>
</svg>
