<?xml version="1.0" encoding="utf-8"?>
<!-- Generator: Adobe Illustrator 16.0.0, SVG Export Plug-In . SVG Version: 6.00 Build 0)  -->
<!DOCTYPE svg PUBLIC "-//W3C//DTD SVG 1.1//EN" "http://www.w3.org/Graphics/SVG/1.1/DTD/svg11.dtd">
<svg version="1.1" id="Layer_1" xmlns="http://www.w3.org/2000/svg" xmlns:xlink="http://www.w3.org/1999/xlink" x="0px" y="0px"
	 width="80px" height="91px" viewBox="0 0 80 91" enable-background="new 0 0 80 91" xml:space="preserve">
<g>
	<g>
		<path fill="none" stroke="#660030" stroke-width="1.2036" stroke-miterlimit="10" d="M74.734,11.456l-0.398-1.344L72.77,9.934
			c-2.973-0.336-5.887-4.236-6.672-5.58l-0.662-1.114H15.85l-0.651,1.114c-0.78,1.342-3.674,5.242-6.672,5.577l-1.571,0.178
			l-0.393,1.348c-17.894,60.48,32.901,75.5,33.421,75.635l0.676,0.174l0.677-0.174C41.854,86.946,92.49,71.478,74.734,11.456z"/>
		<g>
			<path fill="none" stroke="#660030" stroke-width="1.4688" stroke-miterlimit="10" d="M40.673,36.813
				c-4.317,0-8.635-0.012-12.949,0.002c-2.808,0.006-4.823,1.984-4.829,4.782c-0.018,5.671-0.018,11.344-0.002,17.017
				c0.008,2.791,2.038,4.786,4.831,4.786c8.602,0,17.205,0,25.808,0c2.788,0,4.824-1.995,4.829-4.786
				c0.017-5.673,0.025-11.346-0.015-17.017c-0.005-0.723-0.179-1.505-0.488-2.155c-0.849-1.783-2.355-2.627-4.326-2.627
				C49.241,36.809,44.958,36.813,40.673,36.813z M53.042,35.011c0-1.664,0.024-3.282-0.004-4.898
				c-0.046-2.453-0.854-4.638-2.434-6.52c-2.088-2.482-4.774-3.908-7.964-4.345c-4.395-0.603-8.257,0.544-11.416,3.71
				c-1.771,1.776-2.821,3.947-2.948,6.483c-0.088,1.726-0.055,3.454-0.069,5.185c0,0.121,0.017,0.243,0.034,0.386
				C36.498,35.011,44.736,35.011,53.042,35.011z"/>
			<path fill="none" stroke="#660030" stroke-width="1.4688" stroke-miterlimit="10" d="M42.397,48.341c0-0.844,0.01-1.681,0-2.518
				c-0.007-1.134-0.753-1.923-1.789-1.918c-1.02,0.007-1.75,0.788-1.756,1.888c-0.009,1.68-0.009,3.36,0,5.041
				c0,1.134,0.741,1.911,1.785,1.911c1.034-0.005,1.754-0.794,1.761-1.936C42.405,49.992,42.397,49.165,42.397,48.341z"/>
		</g>
	</g>
</g>
</svg>
